# xmcd
#
# Track frame offsets:
#	150
#	11555
#	22767
#	37007
#	56407
#	67560
#	83582
#	97327
#	107752
#	123302
#	137350
#	147692
#
# Disc length: 2183 seconds
# Revision: 0
# Processed by: cddbd v1.5.2PL0 Copyright (c) Steve Scherf et al.
# Submitted via: dBpowerAMP V12.0
#
DISCID=9608850c
DTITLE=Various Artist - Blues Box, Vol. 2
DYEAR=1996
DGENRE=Blues
TTITLE0=John Lee Hooker - Boom Boom
TTITLE1=James Cotton - Don't Start Me Talkin'
TTITLE2=Louis Jordan - Outskirts Of Town
TTITLE3=B. B. King - Sweet Sixteen
TTITLE4=Ray Charles - A Sentimental Blues
TTITLE5=Michael Bloomfield - Don't Lie To Me
TTITLE6=Big Joe Turner - Chains Of Love
TTITLE7=Jimmy Reed - Ain't That Lovin' You Baby
TTITLE8=Elmore James - I Believe
TTITLE9=James Cotton - Feelin' Good
TTITLE10=John Lee Hooker - Maudie
TTITLE11=B. B. King - It's My Own Fault
EXTD=
EXTT0=
EXTT1=
EXTT2=
EXTT3=
EXTT4=
EXTT5=
EXTT6=
EXTT7=
EXTT8=
EXTT9=
EXTT10=
EXTT11=
PLAYORDER=
